<svg width="170" height="41" viewBox="0 0 170 41" fill="none" xmlns="http://www.w3.org/2000/svg">
<path d="M20.4255 0.132324C9.14713 0.132324 0 9.28324 0 20.5662C0 31.8492 9.14713 41.0001 20.4255 41.0001C31.7038 41.0001 40.8509 31.8492 40.8509 20.5662C40.8509 9.28324 31.7038 0.132324 20.4255 0.132324ZM20.4255 36.2266C11.7875 36.2266 4.7716 29.2077 4.7716 20.5662C4.7716 11.9247 11.7687 4.90589 20.4255 4.90589C29.0822 4.90589 36.0793 11.9247 36.0793 20.5662C36.0793 29.2077 29.0634 36.2266 20.4255 36.2266Z" fill="currentColor"/>
<path d="M78.4956 30.8868L49.7529 2.11328H46.377V39.0188H51.1486V10.2642L79.8913 39.0188H83.2484V2.11328H78.4956V30.8868Z" fill="currentColor"/>
<path d="M94.9984 2.11328H90.2268V39.0188H127.117V34.2453H94.9984V2.11328Z" fill="currentColor"/>
<path d="M164.969 30.906L136.17 2.09473L132.812 5.47207L161.593 34.2644H132.85V39.038H169.741V2.13246H164.969V30.906Z" fill="currentColor"/>
</svg>
